<?xml version="1.0" encoding="utf-8"?>
<!-- Generator: Adobe Illustrator 24.3.0, SVG Export Plug-In . SVG Version: 6.00 Build 0)  -->
<svg version="1.1" id="圖層_1" xmlns="http://www.w3.org/2000/svg" xmlns:xlink="http://www.w3.org/1999/xlink" x="0px" y="0px"
	 viewBox="0 0 40.6 50" style="enable-background:new 0 0 40.6 50;" xml:space="preserve">
<style type="text/css">
	.st0{fill:#CC9A6C;}
</style>
<path class="st0" d="M25.3,26.8c-2.7-2.9-4.4-5.2-5-6c-0.6,0.8-2.1,3-4.9,6c-5.7,5.9-0.2,10.1,4.4,7.3c0,1.4-1.1,2.8-1.8,4.1h4.9
	c-0.7-1.3-1.9-2.6-2-4.1C25.6,36.8,30.5,32.2,25.3,26.8"/>
<path class="st0" d="M40.3,27L36,27.5c-0.2-1.7-0.7-3.3-1.4-4.8l4-1.9c-1.7-3.7-4.6-6.7-8-8.8l-2.2,3.8c-1.4-0.8-3-1.5-4.7-1.8
	l0.9-4.3c-1.4-0.3-2.8-0.5-4.3-0.5c-4.8,0-9.1,1.6-12.6,4.4l2.7,3.4c-1.3,1-2.5,2.3-3.4,3.7l-3.7-2.4C1.2,21.6,0,25.4,0,29.5
	c0,0.9,0.1,1.7,0.2,2.5l4.3-0.5c0.2,1.7,0.7,3.3,1.4,4.8l-4,1.9c1.7,3.7,4.6,6.7,8,8.8l2.2-3.8c1.4,0.8,3,1.5,4.7,1.8L16,49.3
	c1.4,0.3,2.8,0.5,4.3,0.5c4.8,0,9.1-1.6,12.6-4.4L30.2,42c1.3-1,2.5-2.3,3.4-3.7l3.7,2.4c2.1-3.2,3.3-7,3.3-11.1
	C40.5,28.7,40.4,27.8,40.3,27 M3.4,27.4c-0.5,0-0.9-0.4-0.9-0.9s0.4-0.9,0.9-0.9s0.9,0.4,0.9,0.9S3.9,27.4,3.4,27.4 M32.9,17.2
	c0.5,0,0.9,0.4,0.9,0.9S33.4,19,32.9,19S32,18.6,32,18.1S32.4,17.2,32.9,17.2 M16.3,12c0.5,0,0.9,0.4,0.9,0.9s-0.4,0.9-0.9,0.9
	s-0.9-0.4-0.9-0.9S15.8,12,16.3,12 M7.9,42.2c-0.5,0-0.9-0.4-0.9-0.9s0.4-0.9,0.9-0.9s0.9,0.4,0.9,0.9S8.4,42.2,7.9,42.2 M24.4,47
	c-0.5,0-0.9-0.4-0.9-0.9s0.4-0.9,0.9-0.9s0.9,0.4,0.9,0.9S24.9,47,24.4,47 M20.3,43.9c-8,0-14.4-6.5-14.4-14.4s6.5-14.4,14.4-14.4
	s14.4,6.5,14.4,14.4S28.2,43.9,20.3,43.9 M36.9,34.3c-0.5,0-0.9-0.4-0.9-0.9s0.4-0.9,0.9-0.9s0.9,0.4,0.9,0.9S37.3,34.3,36.9,34.3"
	/>
<path class="st0" d="M7.6,11.6c1.9-1.5,4.1-2.7,6.5-3.5C14,8,13.9,7.8,13.8,7.6c-0.2-0.7,0.1-1.3,0.6-1.4c0.5-0.1,1,0.3,1.2,0.9
	c0.1,0.2,0.1,0.4,0,0.6C17.4,7.3,19.3,7,21.2,7c0.6,0,1.1,0,1.7,0.1L22.8,2c0-0.1-0.2-0.2-0.2-0.1c-0.2,0.3-0.5,0.7-1,1
	c-0.5,0.4-0.4,1.1,0,1.4c0.3,0.2,0.3,0.6,0.1,0.9c-0.1,0.2-0.4,0.4-0.7,0.4c-0.9,0.2-1.4-1.5-1.6-2.1c0-0.1,0-0.1,0.1-0.1
	c0.2,0,0.7-0.1,0.8-0.4c0.2-0.5-1.8-2.2-2.5-3c-0.1-0.1-0.2-0.1-0.2,0c-0.2,0.4-0.6,1.6-0.4,2.5c0.3,1.2,0.4,3-0.2,3.3
	c-0.6,0.3-1.8-0.3-2.2-1.6l-0.1-0.5c0-0.1,0.1-0.2,0.2-0.2c0.1,0,0.3,0.1,0.5,0C16,3.4,16.2,3,16,2.4c-0.2-0.6-2.4-1.7-3.3-2.3l0,0
	l0,0c-0.5,0.9-1.9,3-1.7,3.6s0.6,0.9,1.2,0.7c0.2-0.1,0.4-0.2,0.5-0.3c0.1-0.1,0.2,0,0.3,0.1l0.1,0.5C13.5,6,12.6,7.1,12,7.2
	c-0.6,0-1.5-1.6-1.8-2.8C9.9,3.6,9,2.8,8.6,2.5c-0.1-0.1-0.2,0-0.2,0.1c-0.2,1-1.1,3.5-0.7,3.8c0.3,0.3,0.7,0.1,0.9,0
	c0.1,0,0.1,0,0.2,0.1C8.9,7,9.3,8.8,8.4,9.1c-0.3,0-0.6,0-0.8-0.1C7.3,8.9,7.1,8.5,7.2,8.2C7.4,7.8,7.2,7,6.5,7C6,7,5.5,6.8,5.1,6.6
	C5.1,6.5,5,6.7,5,6.8L7.6,11.6z M12.8,2.5c-0.1-0.4,0-0.9,0.4-1c0.3-0.1,0.7,0.2,0.8,0.6s0,0.9-0.4,1C13.2,3.2,12.9,2.9,12.8,2.5"/>
</svg>
