<?xml version="1.0" encoding="utf-8"?>
<!-- Generator: Adobe Illustrator 27.1.1, SVG Export Plug-In . SVG Version: 6.00 Build 0)  -->
<svg version="1.1" id="圖層_1" xmlns="http://www.w3.org/2000/svg" xmlns:xlink="http://www.w3.org/1999/xlink" x="0px" y="0px"
	 viewBox="0 0 64 64" style="enable-background:new 0 0 64 64;" xml:space="preserve">
<style type="text/css">
	.st0{fill:#DBB897;}
</style>
<g>
	<path class="st0" d="M37.6,34.1c-2.9-3.2-4.7-5.6-5.4-6.5c-0.6,0.8-2.3,3.2-5.4,6.5c-6.2,6.3-0.2,10.9,4.7,7.9c0,1.6-1.2,3-1.9,4.4
		h5.3c-0.8-1.3-2.1-2.9-2.1-4.4C37.7,44.9,43.1,39.9,37.6,34.1z"/>
	<g>
		<path class="st0" d="M53.7,34.3L49,34.9c-0.3-1.9-0.8-3.6-1.5-5.2l4.3-2c-1.9-4-5-7.2-8.7-9.5l-2.4,4.1c-1.5-0.9-3.3-1.6-5-1.9
			l1-4.6c-1.5-0.3-3-0.5-4.6-0.5c-5.1,0-9.9,1.8-13.6,4.8l2.9,3.7c-1.4,1.1-2.7,2.5-3.7,4l-4-2.6c-2.4,3.4-3.6,7.5-3.6,11.9
			c0,0.9,0.1,1.9,0.2,2.8l4.7-0.6c0.3,1.9,0.8,3.6,1.5,5.2l-4.3,2c1.9,4,5,7.2,8.7,9.5l2.4-4.1c1.5,0.9,3.3,1.6,5,2l-1,4.6
			c1.5,0.3,3,0.5,4.6,0.5c5.1,0,9.9-1.8,13.6-4.8l-2.9-3.7c1.4-1.1,2.7-2.5,3.7-4l4,2.6c2.3-3.4,3.6-7.6,3.6-12
			C53.9,36,53.9,35.2,53.7,34.3z M13.7,34.7c-0.5,0-0.9-0.4-0.9-0.9s0.4-0.9,0.9-0.9s0.9,0.4,0.9,0.9C14.7,34.3,14.3,34.7,13.7,34.7
			z M45.7,23.7c0.5,0,0.9,0.4,0.9,0.9c0,0.5-0.4,0.9-0.9,0.9s-0.9-0.4-0.9-0.9C44.7,24.2,45.1,23.7,45.7,23.7z M27.7,18
			c0.5,0,0.9,0.4,0.9,0.9c0,0.5-0.4,0.9-0.9,0.9s-0.9-0.4-0.9-0.9C26.8,18.4,27.2,18,27.7,18z M18.6,50.8c-0.5,0-0.9-0.4-0.9-0.9
			s0.4-0.9,0.9-0.9s0.9,0.4,0.9,0.9S19.1,50.8,18.6,50.8z M36.5,56c-0.5,0-0.9-0.4-0.9-0.9c0-0.5,0.4-0.9,0.9-0.9s0.9,0.4,0.9,0.9
			C37.5,55.6,37,56,36.5,56z M32,52.6c-8.6,0-15.7-7-15.7-15.7S23.4,21.4,32,21.4s15.7,7,15.7,15.7S40.6,52.6,32,52.6z M50,42.2
			c-0.5,0-0.9-0.4-0.9-0.9s0.4-0.9,0.9-0.9c0.5,0,0.9,0.4,0.9,0.9S50.5,42.2,50,42.2z"/>
	</g>
	<path class="st0" d="M18.3,17.7c2.1-1.6,4.5-2.9,7.1-3.7c-0.2-0.2-0.3-0.3-0.3-0.6c-0.2-0.7,0.1-1.4,0.6-1.5c0.5-0.2,1.1,0.3,1.3,1
		c0.1,0.3,0.1,0.4,0,0.7c2-0.7,4.1-0.9,6.2-0.9c0.6,0,1.3,0,1.9,0.1l-0.2-5.5c0-0.2-0.2-0.2-0.3-0.1c-0.3,0.3-0.6,0.8-1.1,1.1
		c-0.6,0.4-0.4,1.2,0,1.5c0.3,0.3,0.3,0.7,0.2,1c-0.2,0.2-0.4,0.4-0.8,0.5c-0.9,0.3-1.6-1.7-1.8-2.3c0-0.1,0-0.2,0.1-0.2
		c0.3,0,0.7-0.1,0.8-0.5c0.2-0.5-1.9-2.4-2.7-3.3c-0.1-0.1-0.2-0.1-0.3,0c-0.2,0.5-0.7,1.8-0.4,2.8c0.3,1.3,0.4,3.3-0.2,3.5
		c-0.6,0.3-2-0.3-2.4-1.7l-0.2-0.6c0-0.1,0.1-0.3,0.2-0.2c0.2,0,0.3,0.1,0.6,0c0.7-0.2,0.8-0.6,0.7-1.3c-0.2-0.7-2.6-1.9-3.5-2.4
		l0,0l0,0c-0.5,1-2,3.2-1.9,3.9c0.2,0.7,0.6,0.9,1.3,0.8c0.3-0.1,0.4-0.2,0.5-0.3C23.8,9.5,24,9.5,24,9.7l0.2,0.6
		c0.4,1.4-0.5,2.6-1.2,2.7s-1.6-1.7-1.9-3c-0.3-1-1.3-1.9-1.7-2.2c-0.1-0.1-0.2,0-0.2,0.1C19,8.9,18,11.6,18.5,12
		c0.3,0.3,0.8,0.1,1,0c0.1,0,0.2,0,0.2,0.1c0.2,0.6,0.6,2.5-0.4,2.8c-0.3,0.1-0.7,0.1-0.9,0c-0.3-0.2-0.5-0.6-0.3-0.9
		c0.2-0.5,0-1.3-0.8-1.3c-0.6,0-1.1-0.3-1.5-0.4c-0.1-0.1-0.3,0.1-0.2,0.2L18.3,17.7z M23.9,7.8c-0.2-0.5,0.1-0.9,0.4-1
		c0.3-0.1,0.8,0.3,0.8,0.7c0.1,0.5-0.1,0.9-0.4,1C24.4,8.6,24,8.3,23.9,7.8z"/>
</g>
</svg>
